<svg width="20" height="20" viewBox="0 0 20 20" fill="none" xmlns="http://www.w3.org/2000/svg">
<path d="M0.857147 5.42858H19.1429M3.14286 0.857147H16.8571C17.4634 0.857147 18.0447 1.09796 18.4734 1.52662C18.902 1.95527 19.1429 2.53665 19.1429 3.14286V16.8571C19.1429 17.4634 18.902 18.0447 18.4734 18.4734C18.0447 18.902 17.4634 19.1429 16.8571 19.1429H3.14286C2.53665 19.1429 1.95527 18.902 1.52662 18.4734C1.09796 18.0447 0.857147 17.4634 0.857147 16.8571V3.14286C0.857147 2.53665 1.09796 1.95527 1.52662 1.52662C1.95527 1.09796 2.53665 0.857147 3.14286 0.857147V0.857147Z" stroke="#333333" stroke-linecap="round" stroke-linejoin="round"/>
<path d="M10 11.1429C10.6312 11.1429 11.1429 10.6312 11.1429 10C11.1429 9.36882 10.6312 8.85715 10 8.85715C9.36882 8.85715 8.85715 9.36882 8.85715 10C8.85715 10.6312 9.36882 11.1429 10 11.1429Z" fill="#333333"/>
<path d="M5.42858 11.1429C6.05976 11.1429 6.57144 10.6312 6.57144 10C6.57144 9.36882 6.05976 8.85715 5.42858 8.85715C4.7974 8.85715 4.28572 9.36882 4.28572 10C4.28572 10.6312 4.7974 11.1429 5.42858 11.1429Z" fill="#333333"/>
<path d="M14.5714 11.1429C15.2026 11.1429 15.7143 10.6312 15.7143 10C15.7143 9.36882 15.2026 8.85715 14.5714 8.85715C13.9402 8.85715 13.4286 9.36882 13.4286 10C13.4286 10.6312 13.9402 11.1429 14.5714 11.1429Z" fill="#333333"/>
<path d="M10 15.7143C10.6312 15.7143 11.1429 15.2026 11.1429 14.5714C11.1429 13.9402 10.6312 13.4286 10 13.4286C9.36882 13.4286 8.85715 13.9402 8.85715 14.5714C8.85715 15.2026 9.36882 15.7143 10 15.7143Z" fill="#333333"/>
<path d="M5.42858 15.7143C6.05976 15.7143 6.57144 15.2026 6.57144 14.5714C6.57144 13.9402 6.05976 13.4286 5.42858 13.4286C4.7974 13.4286 4.28572 13.9402 4.28572 14.5714C4.28572 15.2026 4.7974 15.7143 5.42858 15.7143Z" fill="#333333"/>
<path d="M14.5714 15.7143C15.2026 15.7143 15.7143 15.2026 15.7143 14.5714C15.7143 13.9402 15.2026 13.4286 14.5714 13.4286C13.9402 13.4286 13.4286 13.9402 13.4286 14.5714C13.4286 15.2026 13.9402 15.7143 14.5714 15.7143Z" fill="#333333"/>
</svg>
